# xmcd
#
# Track frame offsets: 
#        150
#        20827
#        40175
#        62449
#        79954
#        96554
#        118992
#        134134
#        157536
#        172960
#        188384
#        209625
#        226589
#        247877
#
# Disc length: 3503 seconds
#
# Revision: 0
# Processed by: cddbd v1.5.2PL0 Copyright (c) Steve Scherf et al.
# Submitted via: ExactAudioCopy v1.3
#
DISCID=b60dad0e
DTITLE=Trisha Yearwood - Big Bang Concert Series: Trisha Yearwood (Liv
DTITLE=e)
DYEAR=2017
DGENRE=Country
TTITLE0=Under The Rainbow
TTITLE1=The Song Remembers When
TTITLE2=She's In Love With The Boy
TTITLE3=I Need You
TTITLE4=Thinking About You
TTITLE5=On A Bus To St. Cloud
TTITLE6=X's And O's
TTITLE7=Little Hercules
TTITLE8=Nearest Distant Shore
TTITLE9=Wrong Side Of Memphis
TTITLE10=Walkaway Joe
TTITLE11=Believe Me Baby
TTITLE12=Midnight Train To Georgia
TTITLE13=Somewhere Over The Rainbow
EXTD=
EXTT0=
EXTT1=
EXTT2=
EXTT3=
EXTT4=
EXTT5=
EXTT6=
EXTT7=
EXTT8=
EXTT9=
EXTT10=
EXTT11=
EXTT12=
EXTT13=
PLAYORDER=
